<svg xmlns="http://www.w3.org/2000/svg" xmlns:xlink="http://www.w3.org/1999/xlink" width="1022.667" height="750.667" version="1.1" viewBox="-55.333 -55.333 1022.667 750.667"><defs><marker id="arrow_blue" markerHeight="5" markerUnits="strokeWidth" markerWidth="5" orient="auto" refX="8" refY="8" viewBox="0 0 16 16"><path fill="#4285F4" stroke="none" d="M 0 0 L 16 8 L 0 16 z"/></marker><marker id="arrow_red" markerHeight="5" markerUnits="strokeWidth" markerWidth="5" orient="auto" refX="8" refY="8" viewBox="0 0 16 16"><path fill="#EA4335" stroke="none" d="M 0 0 L 16 8 L 0 16 z"/></marker><marker id="arrow_yellow" markerHeight="5" markerUnits="strokeWidth" markerWidth="5" orient="auto" refX="8" refY="8" viewBox="0 0 16 16"><path fill="#FBBC05" stroke="none" d="M 0 0 L 16 8 L 0 16 z"/></marker><marker id="arrow_green" markerHeight="5" markerUnits="strokeWidth" markerWidth="5" orient="auto" refX="8" refY="8" viewBox="0 0 16 16"><path fill="#34A853" stroke="none" d="M 0 0 L 16 8 L 0 16 z"/></marker><marker id="arrow_black" markerHeight="5" markerUnits="strokeWidth" markerWidth="5" orient="auto" refX="8" refY="8" viewBox="0 0 16 16"><path fill="#101010" stroke="none" d="M 0 0 L 16 8 L 0 16 z"/></marker><marker id="arrow_white" markerHeight="5" markerUnits="strokeWidth" markerWidth="5" orient="auto" refX="8" refY="8" viewBox="0 0 16 16"><path fill="#FFF" stroke="none" d="M 0 0 L 16 8 L 0 16 z"/></marker></defs><line x1="0" x2="912" y1="0" y2="0" fill="none" stroke="#969696" stroke-width="2"/><line x1="0" x2="912" y1="80" y2="80" fill="none" stroke="#969696" stroke-width="2"/><line x1="0" x2="912" y1="160" y2="160" fill="none" stroke="#969696" stroke-width="2"/><line x1="0" x2="912" y1="240" y2="240" fill="none" stroke="#969696" stroke-width="2"/><line x1="0" x2="912" y1="320" y2="320" fill="none" stroke="#969696" stroke-width="2"/><line x1="0" x2="912" y1="400" y2="400" fill="none" stroke="#969696" stroke-width="2"/><line x1="0" x2="912" y1="480" y2="480" fill="none" stroke="#969696" stroke-width="2"/><line x1="0" x2="912" y1="560" y2="560" fill="none" stroke="#969696" stroke-width="2"/><line x1="0" x2="912" y1="640" y2="640" fill="none" stroke="#969696" stroke-width="2"/><line x1="0" x2="0" y1="0" y2="640" fill="none" stroke="#969696" stroke-width="2"/><line x1="114" x2="114" y1="0" y2="640" fill="none" stroke="#969696" stroke-width="2"/><line x1="228" x2="228" y1="0" y2="640" fill="none" stroke="#969696" stroke-width="2"/><line x1="342" x2="342" y1="0" y2="640" fill="none" stroke="#969696" stroke-width="2"/><line x1="456" x2="456" y1="0" y2="640" fill="none" stroke="#969696" stroke-width="2"/><line x1="570" x2="570" y1="0" y2="640" fill="none" stroke="#969696" stroke-width="2"/><line x1="684" x2="684" y1="0" y2="640" fill="none" stroke="#969696" stroke-width="2"/><line x1="798" x2="798" y1="0" y2="640" fill="none" stroke="#969696" stroke-width="2"/><line x1="912" x2="912" y1="0" y2="640" fill="none" stroke="#969696" stroke-width="2"/><circle cx="0" cy="80" r="26.667" fill="#fff" stroke="#4285F4" stroke-width="6.667"/><text x="0" y="80" fill="#4285F4" stroke="none" dy="8.889" font-size="26.667" font-weight="bold" text-anchor="middle">3</text><circle cx="114" cy="80" r="26.667" fill="#fff" stroke="#4285F4" stroke-width="6.667"/><text x="114" y="80" fill="#4285F4" stroke="none" dy="8.889" font-size="26.667" font-weight="bold" text-anchor="middle">4</text><circle cx="570" cy="160" r="26.667" fill="#fff" stroke="#4285F4" stroke-width="6.667"/><text x="570" y="160" fill="#4285F4" stroke="none" dy="8.889" font-size="26.667" font-weight="bold" text-anchor="middle">5</text><circle cx="798" cy="160" r="26.667" fill="#fff" stroke="#4285F4" stroke-width="6.667"/><text x="798" y="160" fill="#4285F4" stroke="none" dy="8.889" font-size="26.667" font-weight="bold" text-anchor="middle">6</text><circle cx="342" cy="240" r="26.667" fill="#fff" stroke="#4285F4" stroke-width="6.667"/><text x="342" y="240" fill="#4285F4" stroke="none" dy="8.889" font-size="26.667" font-weight="bold" text-anchor="middle">7</text><circle cx="684" cy="240" r="26.667" fill="#fff" stroke="#4285F4" stroke-width="6.667"/><text x="684" y="240" fill="#4285F4" stroke="none" dy="8.889" font-size="26.667" font-weight="bold" text-anchor="middle">8</text><circle cx="570" cy="400" r="26.667" fill="#fff" stroke="#4285F4" stroke-width="6.667"/><text x="570" y="400" fill="#4285F4" stroke="none" dy="8.889" font-size="26.667" font-weight="bold" text-anchor="middle">9</text><circle cx="912" cy="400" r="26.667" fill="#fff" stroke="#4285F4" stroke-width="6.667"/><text x="912" y="400" fill="#4285F4" stroke="none" dy="8.889" font-size="26.667" font-weight="bold" text-anchor="middle">10</text><circle cx="114" cy="480" r="26.667" fill="#fff" stroke="#4285F4" stroke-width="6.667"/><text x="114" y="480" fill="#4285F4" stroke="none" dy="8.889" font-size="26.667" font-weight="bold" text-anchor="middle">11</text><circle cx="228" cy="480" r="26.667" fill="#fff" stroke="#4285F4" stroke-width="6.667"/><text x="228" y="480" fill="#4285F4" stroke="none" dy="8.889" font-size="26.667" font-weight="bold" text-anchor="middle">12</text><circle cx="342" cy="560" r="26.667" fill="#fff" stroke="#4285F4" stroke-width="6.667"/><text x="342" y="560" fill="#4285F4" stroke="none" dy="8.889" font-size="26.667" font-weight="bold" text-anchor="middle">13</text><circle cx="684" cy="560" r="26.667" fill="#fff" stroke="#4285F4" stroke-width="6.667"/><text x="684" y="560" fill="#4285F4" stroke="none" dy="8.889" font-size="26.667" font-weight="bold" text-anchor="middle">14</text><circle cx="228" cy="0" r="26.667" fill="#fff" stroke="#101010" stroke-width="6.667"/><text x="228" y="0" fill="#101010" stroke="none" dy="8.889" font-size="26.667" font-weight="bold" text-anchor="middle">1</text><circle cx="912" cy="0" r="26.667" fill="#fff" stroke="#101010" stroke-width="6.667"/><text x="912" y="0" fill="#101010" stroke="none" dy="8.889" font-size="26.667" font-weight="bold" text-anchor="middle">2</text><circle cx="0" cy="640" r="26.667" fill="#fff" stroke="#101010" stroke-width="6.667"/><text x="0" y="640" fill="#101010" stroke="none" dy="8.889" font-size="26.667" font-weight="bold" text-anchor="middle">15</text><circle cx="798" cy="640" r="26.667" fill="#fff" stroke="#101010" stroke-width="6.667"/><text x="798" y="640" fill="#101010" stroke="none" dy="8.889" font-size="26.667" font-weight="bold" text-anchor="middle">16</text><circle cx="456" cy="320" r="26.667" fill="#fff" stroke="#101010" stroke-width="6.667"/><text x="456" y="320" fill="#101010" stroke="none" dy="8.889" font-size="26.667" font-weight="bold" text-anchor="middle">0</text></svg>